<svg xmlns="http://www.w3.org/2000/svg" style="display: none">
  <symbol id="search-icon" viewBox="0 0 17 17">
    <path
      d="M14.9515 14.32L12.0281 11.42M13.6074 7.65334C13.6074 10.5989 11.2004 12.9867 8.23108 12.9867C5.26181 12.9867 2.85474 10.5989 2.85474 7.65334C2.85474 4.70782 5.26181 2.32001 8.23108 2.32001C11.2004 2.32001 13.6074 4.70782 13.6074 7.65334Z"
      stroke="#F3F3F3"
      stroke-width="2"
      stroke-linecap="round"
      stroke-linejoin="round"
    />
  </symbol>

  <symbol id="language-icon" viewBox="0 0 24 24">
   <path d="M9.00008 17.3333C7.86119 17.3333 6.7848 17.1146 5.77092 16.6771C4.75703 16.2396 3.87161 15.6424 3.11466 14.8854C2.35772 14.1285 1.7605 13.2431 1.323 12.2292C0.885498 11.2153 0.666748 10.1389 0.666748 9.00001C0.666748 7.84723 0.885498 6.76737 1.323 5.76042C1.7605 4.75348 2.35772 3.87153 3.11466 3.11459C3.87161 2.35764 4.75703 1.76042 5.77092 1.32292C6.7848 0.885422 7.86119 0.666672 9.00008 0.666672C10.1529 0.666672 11.2327 0.885422 12.2397 1.32292C13.2466 1.76042 14.1286 2.35764 14.8855 3.11459C15.6424 3.87153 16.2397 4.75348 16.6772 5.76042C17.1147 6.76737 17.3334 7.84723 17.3334 9.00001C17.3334 10.1389 17.1147 11.2153 16.6772 12.2292C16.2397 13.2431 15.6424 14.1285 14.8855 14.8854C14.1286 15.6424 13.2466 16.2396 12.2397 16.6771C11.2327 17.1146 10.1529 17.3333 9.00008 17.3333ZM9.00008 15.625C9.36119 15.125 9.67369 14.6042 9.93758 14.0625C10.2015 13.5208 10.4167 12.9445 10.5834 12.3333H7.41675C7.58342 12.9445 7.79869 13.5208 8.06258 14.0625C8.32647 14.6042 8.63897 15.125 9.00008 15.625ZM6.83342 15.2917C6.58342 14.8333 6.36467 14.3576 6.17717 13.8646C5.98967 13.3715 5.83342 12.8611 5.70842 12.3333H3.25008C3.65286 13.0278 4.15633 13.632 4.7605 14.1458C5.36467 14.6597 6.05564 15.0417 6.83342 15.2917ZM11.1667 15.2917C11.9445 15.0417 12.6355 14.6597 13.2397 14.1458C13.8438 13.632 14.3473 13.0278 14.7501 12.3333H12.2917C12.1667 12.8611 12.0105 13.3715 11.823 13.8646C11.6355 14.3576 11.4167 14.8333 11.1667 15.2917ZM2.54175 10.6667H5.37508C5.33342 10.3889 5.30217 10.1146 5.28133 9.84376C5.2605 9.57292 5.25008 9.29167 5.25008 9.00001C5.25008 8.70834 5.2605 8.42709 5.28133 8.15626C5.30217 7.88542 5.33342 7.61112 5.37508 7.33334H2.54175C2.4723 7.61112 2.42022 7.88542 2.3855 8.15626C2.35078 8.42709 2.33341 8.70834 2.33341 9.00001C2.33341 9.29167 2.35078 9.57292 2.3855 9.84376C2.42022 10.1146 2.4723 10.3889 2.54175 10.6667ZM7.04175 10.6667H10.9584C11.0001 10.3889 11.0313 10.1146 11.0522 9.84376C11.073 9.57292 11.0834 9.29167 11.0834 9.00001C11.0834 8.70834 11.073 8.42709 11.0522 8.15626C11.0313 7.88542 11.0001 7.61112 10.9584 7.33334H7.04175C7.00008 7.61112 6.96883 7.88542 6.948 8.15626C6.92717 8.42709 6.91675 8.70834 6.91675 9.00001C6.91675 9.29167 6.92717 9.57292 6.948 9.84376C6.96883 10.1146 7.00008 10.3889 7.04175 10.6667ZM12.6251 10.6667H15.4584C15.5279 10.3889 15.5799 10.1146 15.6147 9.84376C15.6494 9.57292 15.6667 9.29167 15.6667 9.00001C15.6667 8.70834 15.6494 8.42709 15.6147 8.15626C15.5799 7.88542 15.5279 7.61112 15.4584 7.33334H12.6251C12.6667 7.61112 12.698 7.88542 12.7188 8.15626C12.7397 8.42709 12.7501 8.70834 12.7501 9.00001C12.7501 9.29167 12.7397 9.57292 12.7188 9.84376C12.698 10.1146 12.6667 10.3889 12.6251 10.6667ZM12.2917 5.66667H14.7501C14.3473 4.97223 13.8438 4.36806 13.2397 3.85417C12.6355 3.34028 11.9445 2.95834 11.1667 2.70834C11.4167 3.16667 11.6355 3.64237 11.823 4.13542C12.0105 4.62848 12.1667 5.13889 12.2917 5.66667ZM7.41675 5.66667H10.5834C10.4167 5.05556 10.2015 4.47917 9.93758 3.93751C9.67369 3.39584 9.36119 2.87501 9.00008 2.37501C8.63897 2.87501 8.32647 3.39584 8.06258 3.93751C7.79869 4.47917 7.58342 5.05556 7.41675 5.66667ZM3.25008 5.66667H5.70842C5.83342 5.13889 5.98967 4.62848 6.17717 4.13542C6.36467 3.64237 6.58342 3.16667 6.83342 2.70834C6.05564 2.95834 5.36467 3.34028 4.7605 3.85417C4.15633 4.36806 3.65286 4.97223 3.25008 5.66667Z" fill="white"/>
  </symbol>
</svg>
