<svg width="23" height="23" viewBox="0 0 23 23" fill="none" xmlns="http://www.w3.org/2000/svg">
<path d="M21.0834 16.2149V19.0899C21.0845 19.3568 21.0298 19.621 20.9229 19.8656C20.8159 20.1101 20.6591 20.3296 20.4624 20.51C20.2658 20.6905 20.0336 20.8279 19.7808 20.9134C19.5279 20.9989 19.26 21.0306 18.9942 21.0066C16.0453 20.6862 13.2126 19.6785 10.7238 18.0645C8.40829 16.5932 6.44515 14.63 4.97379 12.3145C3.35418 9.81442 2.34627 6.96797 2.0317 4.00576C2.00776 3.74075 2.03925 3.47366 2.12418 3.22149C2.20912 2.96932 2.34563 2.73759 2.52502 2.54107C2.70442 2.34454 2.92277 2.18753 3.16617 2.08001C3.40957 1.9725 3.6727 1.91685 3.93879 1.9166H6.81379C7.27887 1.91202 7.72975 2.07671 8.08239 2.37998C8.43503 2.68325 8.66536 3.1044 8.73045 3.56493C8.8518 4.48499 9.07684 5.38838 9.40129 6.25785C9.53023 6.60086 9.55813 6.97364 9.4817 7.33202C9.40527 7.69041 9.2277 8.01937 8.97004 8.27993L7.75295 9.49701C9.1172 11.8962 11.1037 13.8828 13.503 15.247L14.72 14.0299C14.9806 13.7723 15.3096 13.5947 15.6679 13.5183C16.0263 13.4418 16.3991 13.4697 16.7421 13.5987C17.6116 13.9231 18.515 14.1482 19.435 14.2695C19.9006 14.3352 20.3257 14.5697 20.6296 14.9284C20.9335 15.2871 21.095 15.7449 21.0834 16.2149Z" fill="#F3E1B3"/>
</svg>
